<svg xmlns="http://www.w3.org/2000/svg" width="512" height="512" viewBox="0 0 512 512" version="1.1">
	<path d="M 68.656 1.969 C 56.585 5.837, 47.623 14.160, 42.778 26 C 40.621 31.272, 40.514 32.917, 40.204 65.750 L 39.880 100 24.908 100 C 8.742 100, 4.573 100.916, 1.631 105.117 C 0.173 107.199, 0 113.084, 0 160.707 L 0 213.968 2.916 217.234 L 5.831 220.500 22.888 220.816 L 39.945 221.131 40.222 320.816 L 40.500 420.500 42.835 426.285 C 47.682 438.294, 60.282 448.381, 73.745 451.030 L 79.909 452.242 80.205 479.205 L 80.500 506.167 83.766 509.083 L 87.032 512 125.500 512 L 163.968 512 167.234 509.084 L 170.500 506.167 170.810 479.084 L 171.119 452 256 452 L 340.881 452 341.190 479.084 L 341.500 506.167 344.766 509.084 L 348.032 512 386.500 512 L 424.968 512 428.234 509.083 L 431.500 506.167 431.795 479.205 L 432.091 452.242 438.295 451.025 C 455.043 447.740, 467.968 435.123, 470.985 419.114 C 471.627 415.704, 472 378.377, 472 317.429 L 472 221.132 489.117 220.816 L 506.233 220.500 509.617 216.583 L 513 212.667 512.921 159.083 C 512.878 129.613, 512.602 106.103, 512.308 106.839 C 511.938 107.766, 511.419 107.459, 510.623 105.839 C 508.296 101.110, 503.878 100.003, 487.310 100.002 L 472.120 100 471.796 65.750 C 471.486 32.917, 471.379 31.272, 469.222 26 C 467.984 22.975, 465.381 18.339, 463.438 15.697 C 459.770 10.713, 450.364 3.934, 444.106 1.765 C 441.281 0.786, 400.860 0.470, 257.500 0.306 C 81.082 0.104, 74.290 0.164, 68.656 1.969 M 72.491 21.865 C 67.450 24.155, 62.425 29.807, 61.060 34.723 C 60.483 36.800, 60.009 47.837, 60.006 59.250 L 60 80 256 80 L 452 80 451.994 59.250 C 451.991 47.837, 451.517 36.800, 450.940 34.723 C 449.575 29.807, 444.550 24.155, 439.509 21.865 C 435.679 20.125, 427.486 20.044, 256 20.044 C 84.514 20.044, 76.321 20.125, 72.491 21.865 M 191.500 41.142 C 185.319 44.599, 184.084 52.238, 188.923 57.077 L 191.846 60 230.489 60 C 255.080 60, 269.831 59.626, 271.055 58.970 C 273.481 57.672, 276 52.881, 276 49.565 C 276 48.172, 274.687 45.562, 273.083 43.766 L 270.166 40.500 231.833 40.261 C 205.011 40.095, 192.899 40.359, 191.500 41.142 M 303 40.706 C 297.765 42.620, 294.931 49.004, 297.047 54.113 C 298.873 58.521, 302.637 60, 312.027 60 C 319.676 60, 320.326 59.828, 323.077 57.077 C 327.983 52.170, 326.630 44.346, 320.316 41.117 C 318.107 39.988, 305.766 39.695, 303 40.706 M 60.669 100.664 C 60.301 101.032, 60 139.508, 60 186.167 L 60 271 256.006 271 L 452.011 271 451.756 185.750 L 451.500 100.500 256.419 100.247 C 149.125 100.109, 61.037 100.296, 60.669 100.664 M 0.466 160.500 C 0.466 190.200, 0.594 202.206, 0.749 187.179 C 0.905 172.153, 0.905 147.853, 0.749 133.179 C 0.593 118.506, 0.466 130.800, 0.466 160.500 M 20 160.500 L 20 201 30 201 L 40 201 40 160.500 L 40 120 30 120 L 20 120 20 160.500 M 472 160.500 L 472 201 482 201 L 492 201 492 160.500 L 492 120 482 120 L 472 120 472 160.500 M 60.006 352.250 C 60.009 392.345, 60.378 414.820, 61.072 417.321 C 61.656 419.422, 63.728 422.907, 65.678 425.065 C 72.391 432.495, 58.793 432, 256 432 C 453.207 432, 439.609 432.495, 446.322 425.065 C 448.272 422.907, 450.344 419.422, 450.928 417.321 C 451.622 414.820, 451.991 392.345, 451.994 352.250 L 452 291 256 291 L 60 291 60.006 352.250 M 86.213 332.507 C 80.674 334.913, 80 338.085, 80.002 361.718 C 80.003 385.592, 80.718 388.551, 87 390.694 C 91.910 392.368, 159.090 392.368, 164 390.694 C 170.282 388.551, 170.997 385.592, 170.998 361.718 C 171 337.832, 170.352 334.880, 164.568 332.464 C 159.486 330.341, 91.112 330.378, 86.213 332.507 M 196.383 332.583 C 190.375 335.547, 189.145 343.299, 193.923 348.077 L 196.846 351 256 351 L 315.154 351 318.077 348.077 C 322.915 343.239, 321.604 335.464, 315.460 332.548 C 310.569 330.227, 201.094 330.259, 196.383 332.583 M 347.213 332.507 C 341.674 334.913, 341 338.085, 341.002 361.718 C 341.003 385.592, 341.718 388.551, 348 390.694 C 352.910 392.368, 420.090 392.368, 425 390.694 C 431.282 388.551, 431.997 385.592, 431.998 361.718 C 432 337.832, 431.352 334.880, 425.568 332.464 C 420.486 330.341, 352.112 330.378, 347.213 332.507 M 100.684 351.650 C 100.308 352.026, 100 356.533, 100 361.667 L 100 371 125.536 371 L 151.072 371 150.786 361.250 L 150.500 351.500 125.934 351.233 C 112.422 351.086, 101.060 351.274, 100.684 351.650 M 361.684 351.650 C 361.308 352.026, 361 356.533, 361 361.667 L 361 371 386.536 371 L 412.072 371 411.786 361.250 L 411.500 351.500 386.934 351.233 C 373.422 351.086, 362.060 351.274, 361.684 351.650 M 198.786 371.693 C 197.293 371.931, 194.931 373.482, 193.536 375.140 C 190.015 379.324, 190.152 384.019, 193.918 388.234 L 196.836 391.500 256 391.500 L 315.164 391.500 318.082 388.234 C 322.025 383.821, 322.025 379.179, 318.083 374.766 L 315.165 371.500 258.333 371.381 C 227.075 371.315, 200.279 371.456, 198.786 371.693 M 100 472 L 100 492 125.500 492 L 151 492 151 472 L 151 452 125.500 452 L 100 452 100 472 M 361 472 L 361 492 386.500 492 L 412 492 412 472 L 412 452 386.500 452 L 361 452 361 472" stroke="none" fill="#0097b2" fill-rule="evenodd"/>
</svg>