<svg xmlns="http://www.w3.org/2000/svg" width="512" height="512" viewBox="0 0 512 512" version="1.1">
	<path d="M 86 45.500 L 86 81 46 81 L 6 81 6 291.500 L 6 502 256 502 L 506 502 506 357.500 L 506 213 448 213 L 390 213 390 169.511 L 390 126.023 350.250 125.761 L 310.500 125.500 310.231 103.250 L 309.962 81 277.481 81 L 245 81 245 45.500 L 245 10 165.500 10 L 86 10 86 45.500 M 115 60 L 115 81 165.500 81 L 216 81 216 60 L 216 39 165.500 39 L 115 39 115 60 M 35 291 L 35 472 111 472 L 187 472 187 342.509 L 187 213.018 237.750 212.759 L 288.500 212.500 288.765 182.165 L 289.030 151.830 286.115 149.107 C 281.990 145.254, 281.012 140.495, 281.006 124.250 L 281 110 158 110 L 35 110 35 291 M 78.667 153.667 C 78.300 154.033, 78 160.558, 78 168.167 L 78 182 107 182 L 136 182 136 167.500 L 136 153 107.667 153 C 92.083 153, 79.033 153.300, 78.667 153.667 M 180 167.485 L 180 182 209.027 182 L 238.055 182 237.777 167.750 L 237.500 153.500 208.750 153.235 L 180 152.969 180 167.485 M 318 184 L 318 213 339.500 213 L 361 213 361 184 L 361 155 339.500 155 L 318 155 318 184 M 78.223 240.250 L 78.500 254.500 107.250 254.765 L 136 255.031 136 240.515 L 136 226 106.973 226 L 77.945 226 78.223 240.250 M 216 357.500 L 216 473 346.500 473 L 477 473 477 357.500 L 477 242 346.500 242 L 216 242 216 357.500 M 78.667 298.667 C 78.300 299.033, 78 305.558, 78 313.167 L 78 327 107 327 L 136 327 136 312.500 L 136 298 107.667 298 C 92.083 298, 79.033 298.300, 78.667 298.667 M 252.667 298.667 C 252.300 299.033, 252 305.558, 252 313.167 L 252 327 288.500 327 L 325 327 325 312.500 L 325 298 289.167 298 C 269.458 298, 253.033 298.300, 252.667 298.667 M 354 312.500 L 354 327 390 327 L 426 327 426 312.500 L 426 298 390 298 L 354 298 354 312.500 M 78.223 385.250 L 78.500 399.500 107.250 399.765 L 136 400.031 136 385.515 L 136 371 106.973 371 L 77.945 371 78.223 385.250 M 252.223 385.250 L 252.500 399.500 288.750 399.762 L 325 400.025 325 385.512 L 325 371 288.473 371 L 251.945 371 252.223 385.250 M 354 385.500 L 354 400 390 400 L 426 400 426 385.500 L 426 371 390 371 L 354 371 354 385.500" stroke="none" fill="#0097b2" fill-rule="evenodd"/>
</svg>