<svg xmlns="http://www.w3.org/2000/svg" width="512" height="512" viewBox="0 0 512 512" version="1.1">
	<path d="M 232.500 1.128 C 183.716 5.780, 137.828 24.096, 98 54.815 C 87.064 63.250, 63.250 87.064, 54.815 98 C 33.656 125.434, 18.116 156.137, 9.515 187.500 C -12.207 266.712, 4.100 348.246, 54.815 414 C 63.250 424.936, 87.064 448.750, 98 457.185 C 125.434 478.344, 156.137 493.884, 187.500 502.485 C 266.712 524.207, 348.246 507.900, 414 457.185 C 424.936 448.750, 448.750 424.936, 457.185 414 C 487.859 374.229, 507.437 325.082, 510.677 279.715 C 511.022 274.883, 511.686 270.694, 512.152 270.406 C 512.619 270.118, 513 263.132, 513 254.882 C 513 246.632, 512.616 240.119, 512.147 240.409 C 511.679 240.699, 511.015 237.013, 510.672 232.218 C 507.437 186.922, 487.840 137.746, 457.185 98 C 448.750 87.064, 424.936 63.250, 414 54.815 C 361.310 14.177, 296.552 -4.979, 232.500 1.128 M 233 46.106 C 151.123 55.350, 80.993 112.388, 55.483 190.484 C 30.711 266.318, 50.431 348.387, 107.022 404.978 C 163.613 461.569, 245.682 481.289, 321.516 456.517 C 384.852 435.828, 435.828 384.852, 456.517 321.516 C 481.289 245.682, 461.569 163.613, 404.978 107.022 C 370.367 72.411, 326.438 51.385, 277.500 46.006 C 266.948 44.846, 243.698 44.898, 233 46.106 M 231.500 153.896 C 229.300 154.914, 226.286 157.042, 224.803 158.624 C 218.920 164.897, 218.998 164.036, 219.022 222.718 C 219.042 272.933, 219.167 276.765, 220.896 280.500 C 223.165 285.402, 227.288 289.388, 232.218 291.447 C 237.803 293.780, 341.197 293.780, 346.782 291.447 C 361.035 285.493, 364.804 267.152, 354.136 255.661 C 348.338 249.415, 349.315 249.547, 304.500 249 L 263.500 248.500 263 207.500 C 262.454 162.692, 262.595 163.745, 256.339 157.803 C 250.202 151.973, 239.342 150.265, 231.500 153.896 M 0.402 256 C 0.402 264.525, 0.556 268.012, 0.743 263.750 C 0.931 259.488, 0.931 252.512, 0.743 248.250 C 0.556 243.988, 0.402 247.475, 0.402 256" stroke="none" fill="#0097c2" fill-rule="evenodd"/>
</svg>