<svg xmlns="http://www.w3.org/2000/svg" width="512" height="512" viewBox="0 0 512 512" version="1.1">
	<path d="M 402 1.488 C 372.836 8.046, 350.896 29.934, 341.830 61.518 C 338.728 72.323, 338.468 98.673, 341.358 109.336 C 343.962 118.948, 347.423 127.098, 352.302 135.112 C 355.864 140.962, 414.545 208.903, 416 208.861 C 416.752 208.840, 473.580 144.113, 476.897 139.500 C 481.533 133.052, 486.667 122.168, 489.633 112.500 C 492.189 104.168, 492.394 102.238, 492.385 86.500 C 492.374 66.560, 490.834 59.281, 483.491 44.451 C 473.354 23.977, 454.747 8.059, 434.500 2.540 C 425.934 0.205, 409.999 -0.311, 402 1.488 M 405.500 18.100 C 384.209 22.887, 366.606 39.816, 359.446 62.392 C 352.815 83.298, 355.298 107.057, 365.988 125 C 369.756 131.324, 414.226 182.500, 415.954 182.500 C 417.699 182.500, 462.174 131.291, 465.983 124.895 C 468.146 121.263, 471.169 114.738, 472.700 110.395 C 475.305 103.006, 475.482 101.474, 475.461 86.500 C 475.440 71.807, 475.218 69.846, 472.745 62.500 C 463.605 35.353, 440.157 16.763, 415.500 17.115 C 412.200 17.162, 407.700 17.606, 405.500 18.100 M 410.245 35.016 C 396.528 37.017, 382.540 47.582, 376.285 60.664 C 363.687 87.012, 377.606 118.177, 405.500 126.077 C 411.874 127.882, 424.049 127.896, 430.500 126.105 C 445.641 121.902, 458.902 108.641, 463.105 93.500 C 464.896 87.049, 464.882 74.874, 463.077 68.500 C 458.264 51.507, 442.924 37.847, 425.438 34.984 C 418.865 33.908, 417.829 33.910, 410.245 35.016 M 411.734 52.088 C 396.033 55.787, 385.856 71.320, 389.042 86.722 C 392.397 102.941, 408.139 113.410, 424.156 110.075 C 440.688 106.632, 451.239 89.681, 446.922 73.500 C 444.253 63.499, 434.488 54.313, 424.201 52.126 C 418.198 50.851, 417.003 50.847, 411.734 52.088 M 261 189.374 C 251.684 191.939, 245.530 196.041, 244.431 200.420 C 243.584 203.793, 246.480 208.824, 249.768 209.693 C 253.209 210.602, 254.438 210.399, 260 208.002 C 262.475 206.935, 266.436 205.575, 268.803 204.978 C 274.341 203.583, 277.009 200.895, 276.968 196.750 C 276.933 193.122, 275.567 190.895, 272.316 189.163 C 269.614 187.724, 266.802 187.776, 261 189.374 M 297.611 190.250 C 293.318 194.112, 294.015 200.922, 298.965 203.482 C 302.486 205.303, 318.061 205.572, 322.872 203.895 C 328.523 201.925, 329.932 194.842, 325.545 190.455 C 323.224 188.133, 322.467 188, 311.601 188 C 301.094 188, 299.898 188.192, 297.611 190.250 M 348.455 190.455 C 346.819 192.090, 346.011 194.009, 346.032 196.205 C 346.097 202.970, 350.041 205, 363.115 205 C 373.521 205, 377.255 203.577, 378.849 199.002 C 380.068 195.508, 379.557 193.449, 376.677 190.250 C 374.792 188.157, 373.824 188, 362.780 188 C 351.510 188, 350.785 188.124, 348.455 190.455 M 100.500 213.677 C 75.954 215.770, 55.188 225.654, 37.890 243.478 C 16.092 265.939, 4.791 294.592, 4.753 327.500 C 4.721 355.135, 12.912 381.049, 28.017 401.094 C 34.954 410.300, 105.362 489.500, 106.610 489.500 C 107.551 489.500, 172.729 416.526, 182.553 404.472 C 194.271 390.095, 202.613 371.676, 206.687 351.182 C 209.265 338.218, 208.994 315.626, 206.098 302 C 196.613 257.374, 164.579 223.057, 125.484 215.641 C 116.572 213.951, 106.539 213.162, 100.500 213.677 M 231.359 222.443 C 225.925 224.812, 224.543 235.091, 228.023 247.257 C 230.100 254.518, 237.047 257.400, 241.799 252.972 C 244.709 250.261, 245.315 247.335, 244.078 241.967 C 243.512 239.510, 243.038 234.930, 243.024 231.789 C 243.005 227.221, 242.562 225.670, 240.811 224.039 C 239.608 222.918, 238.295 222, 237.893 222 C 237.492 222, 236.564 221.791, 235.832 221.536 C 235.099 221.282, 233.086 221.689, 231.359 222.443 M 97.898 231.084 C 79.867 232.970, 63.228 241.651, 48.939 256.624 C 40.642 265.319, 36.903 270.818, 31.470 282.322 C 14.103 319.095, 19.522 364.430, 44.937 394.986 C 48.584 399.370, 100.870 458.810, 105.455 463.783 C 106.392 464.800, 113.154 457.691, 137.995 429.570 C 155.241 410.046, 171.236 391.364, 173.540 388.053 C 186.233 369.814, 193.005 345.350, 191.687 322.500 C 188.448 266.366, 146.981 225.948, 97.898 231.084 M 255.500 263.158 C 252.389 265.020, 251.066 267.226, 251.032 270.614 C 250.966 277.023, 258.732 280.925, 272.301 281.302 C 277.996 281.460, 279.193 281.167, 281.428 279.068 C 283.285 277.323, 284 275.631, 284 272.981 C 284 267.691, 281.327 265.738, 272.145 264.318 C 267.940 263.667, 262.925 262.871, 261 262.548 C 258.990 262.211, 256.648 262.470, 255.500 263.158 M 92 266.886 C 82.883 269.833, 77.837 272.958, 70.750 280.044 C 50.331 300.461, 50.485 331.722, 71.105 352.024 C 91.421 372.027, 122.282 371.755, 142.644 351.393 C 150.817 343.220, 155.518 333.855, 157.161 322.473 C 160.718 297.835, 144.022 272.885, 119.632 266.390 C 112.405 264.466, 98.726 264.711, 92 266.886 M 304.073 267.635 C 301.188 271.302, 301.381 276.069, 304.533 279.031 C 306.742 281.107, 308.260 281.463, 316.421 281.820 C 328.264 282.338, 332.667 281.042, 334.575 276.476 C 336.197 272.592, 334.948 267.578, 331.961 265.979 C 330.955 265.441, 324.735 265, 318.138 265 C 306.373 265, 306.106 265.050, 304.073 267.635 M 355.455 267.455 C 352.290 270.619, 352.260 275.028, 355.379 278.654 C 357.624 281.264, 358.314 281.442, 367.654 281.817 C 375.080 282.115, 378.482 281.825, 381.282 280.656 C 387.269 278.154, 388.566 271.566, 383.975 266.975 C 382.227 265.227, 380.615 265, 369.955 265 C 358.499 265, 357.789 265.120, 355.455 267.455 M 407.025 266.975 C 402.434 271.566, 403.731 278.154, 409.718 280.656 C 412.518 281.825, 415.920 282.115, 423.346 281.817 C 432.686 281.442, 433.376 281.264, 435.621 278.654 C 438.740 275.028, 438.710 270.619, 435.545 267.455 C 433.211 265.120, 432.501 265, 421.045 265 C 410.385 265, 408.773 265.227, 407.025 266.975 M 458.323 267.250 C 455.302 270.606, 454.867 272.745, 456.439 276.507 C 457.667 279.447, 458.638 280.119, 463.679 281.519 C 466.880 282.407, 471.865 284.058, 474.756 285.186 C 479.282 286.952, 480.434 287.063, 483.045 285.982 C 486.628 284.497, 488 282.284, 488 277.989 C 488 273.379, 483.690 269.602, 475.564 267.093 C 466.465 264.282, 460.949 264.333, 458.323 267.250 M 93.500 284.449 C 85.478 287.793, 78.102 295.416, 75.093 303.472 C 68.435 321.296, 76.662 340.010, 94.500 347.612 C 97.087 348.715, 101.326 349.341, 106.500 349.384 C 113.112 349.439, 115.475 348.998, 120.120 346.840 C 146.780 334.456, 147.307 297.505, 121 285.129 C 112.897 281.317, 101.680 281.040, 93.500 284.449 M 493.133 299.713 C 490.363 302.484, 490.162 303.208, 489.994 311.086 C 489.895 315.714, 489.780 321.033, 489.738 322.907 C 489.652 326.814, 493.580 331, 497.333 331 C 499.938 331, 503.579 328.654, 504.950 326.094 C 506.925 322.403, 508.029 311.424, 506.980 305.897 C 505.775 299.543, 504.577 298.130, 499.727 297.343 C 496.619 296.839, 495.665 297.182, 493.133 299.713 M 470.904 339.653 C 468.482 340.377, 464.798 340.976, 462.718 340.985 C 456.934 341.008, 452.200 343.378, 451.333 346.684 C 450.302 350.615, 450.838 353.132, 453.264 355.750 C 454.995 357.619, 456.403 358, 461.569 358 C 469.388 358, 480.391 354.708, 482.464 351.749 C 484.566 348.746, 484.391 344.766, 482.023 341.756 C 479.515 338.568, 476.463 337.991, 470.904 339.653 M 303.270 341.703 C 300.223 342.292, 297 346.650, 297 350.180 C 297 351.937, 297.973 354.064, 299.455 355.545 C 301.785 357.875, 302.511 358, 313.766 358 C 324.295 358, 325.867 357.773, 327.799 355.972 C 332.489 351.603, 331.366 344.887, 325.538 342.452 C 322.254 341.079, 308.835 340.628, 303.270 341.703 M 354.270 341.651 C 351.580 342.233, 348 346.535, 348 349.185 C 348 351.901, 350.631 356.644, 352.545 357.379 C 353.435 357.720, 359.322 358, 365.627 358 C 376.465 358, 377.225 357.866, 379.545 355.545 C 382.714 352.377, 382.740 347.972, 379.612 344.335 C 377.312 341.662, 376.840 341.552, 366.862 341.363 C 361.163 341.256, 355.496 341.385, 354.270 341.651 M 404.421 342.363 C 400.441 344.168, 398.511 348.582, 399.994 352.485 C 401.856 357.381, 403.500 357.934, 416.295 357.968 C 427.507 357.998, 428.213 357.878, 430.545 355.545 C 433.903 352.188, 433.859 347.156, 430.444 343.948 C 428.145 341.787, 426.865 341.517, 417.694 341.256 C 410.559 341.053, 406.576 341.385, 404.421 342.363 M 271.822 358.534 C 268.547 360.313, 262.400 372.151, 261.445 378.519 C 260.639 383.896, 262.403 387.248, 266.858 388.801 C 270.927 390.219, 276.046 387.615, 277.281 383.500 C 277.775 381.850, 279.733 377.278, 281.632 373.341 C 285.511 365.296, 285.431 362.271, 281.253 358.984 C 278.292 356.655, 275.526 356.523, 271.822 358.534 M 272.025 406.975 C 267.405 411.595, 268.801 417.106, 276.193 423.434 C 278.529 425.432, 282.817 428.231, 285.724 429.653 C 290.476 431.978, 291.323 432.109, 294.127 430.947 C 296.089 430.135, 297.769 428.403, 298.656 426.282 C 300.571 421.697, 298.940 418.471, 292.613 414.331 C 289.936 412.579, 286.319 409.763, 284.575 408.073 C 280.724 404.341, 275.147 403.853, 272.025 406.975 M 321.206 419.048 C 318.124 420.284, 315.713 426.114, 316.943 429.351 C 318.741 434.080, 321.482 435, 333.768 435 C 344.457 435, 345.228 434.862, 347.545 432.545 C 351.592 428.499, 350.785 421.975, 345.928 419.463 C 342.711 417.799, 325.056 417.502, 321.206 419.048 M 372.500 419.155 C 367.329 421.983, 366.344 428.435, 370.455 432.545 C 372.776 434.867, 373.533 435, 384.399 435 C 394.906 435, 396.102 434.808, 398.389 432.750 C 402.682 428.888, 401.985 422.078, 397.035 419.518 C 393.532 417.706, 375.633 417.441, 372.500 419.155 M 423 423.294 C 419.869 424.878, 417.631 429.395, 418.421 432.539 C 418.751 433.855, 420.667 436.184, 422.680 437.716 C 424.692 439.247, 428.444 442.410, 431.017 444.745 C 437.398 450.533, 440.990 451.164, 444.960 447.194 C 449.625 442.529, 449.139 439.085, 442.886 432.473 C 438.346 427.673, 429.447 421.974, 426.554 422.015 C 425.974 422.023, 424.375 422.599, 423 423.294 M 443.200 466.012 C 441.830 466.584, 440.096 468.899, 438.912 471.736 C 437.820 474.356, 435.562 479.087, 433.895 482.250 C 430.606 488.490, 430.679 490.806, 434.289 494.750 C 436.904 497.607, 441.838 497.702, 445.321 494.962 C 448.855 492.183, 454.198 480.996, 454.753 475.215 C 455.101 471.598, 454.771 469.951, 453.354 468.242 C 451.210 465.656, 446.519 464.625, 443.200 466.012 M 131.455 497.455 C 129.039 499.870, 128.286 503.976, 129.621 507.455 C 130.885 510.748, 135.504 512, 146.395 512 C 155.882 512, 157.143 511.781, 159.544 509.716 C 161.581 507.964, 162.200 506.515, 162.200 503.500 C 162.200 500.485, 161.581 499.036, 159.544 497.284 C 157.112 495.192, 155.924 495, 145.399 495 C 134.533 495, 133.776 495.133, 131.455 497.455 M 184.500 496.208 C 181.427 497.970, 180.064 500.211, 180.064 503.500 C 180.064 510.100, 183.934 512, 197.378 512 C 206.994 512, 208.123 511.798, 210.644 509.630 C 214.506 506.308, 214.506 500.692, 210.644 497.370 C 208.110 495.191, 207.027 495.002, 197.194 495.030 C 191.038 495.048, 185.651 495.548, 184.500 496.208 M 235.364 496.170 C 233.011 497.309, 231 500.974, 231 504.124 C 231 505.240, 232.315 507.469, 233.923 509.077 C 236.804 511.958, 237.005 512, 248 512 C 258.995 512, 259.196 511.958, 262.077 509.077 C 266.349 504.805, 265.500 498.460, 260.343 496.110 C 257.303 494.725, 238.254 494.770, 235.364 496.170 M 285.356 497.370 C 281.494 500.692, 281.494 506.308, 285.356 509.630 C 287.877 511.798, 289.006 512, 298.622 512 C 312.066 512, 315.936 510.100, 315.936 503.500 C 315.936 496.900, 312.066 495, 298.622 495 C 289.006 495, 287.877 495.202, 285.356 497.370 M 336.611 497.250 C 332.806 500.673, 332.740 505.831, 336.455 509.545 C 338.752 511.843, 339.588 512, 349.504 512 C 360.499 512, 365.112 510.758, 366.379 507.455 C 367.714 503.976, 366.961 499.870, 364.545 497.455 C 362.224 495.133, 361.467 495, 350.601 495 C 340.094 495, 338.898 495.192, 336.611 497.250 M 387.455 497.455 C 382.770 502.139, 384.966 509.949, 391.422 511.570 C 392.783 511.911, 398.460 512.035, 404.038 511.845 C 413.275 511.531, 414.350 511.289, 416.090 509.139 C 418.239 506.484, 418.557 501.308, 416.718 498.913 C 414.308 495.774, 411.105 495, 400.520 495 C 390.587 495, 389.752 495.157, 387.455 497.455" stroke="none" fill="#0097b2" fill-rule="evenodd"/>
</svg>