<svg xmlns="http://www.w3.org/2000/svg" width="512" height="512" viewBox="0 0 512 512" version="1.1">
	<path d="M 244.257 2.048 C 240.281 4.066, 239.472 5.279, 231.380 21.351 C 226.630 30.783, 222.656 38.608, 222.548 38.741 C 222.440 38.873, 214.302 40.149, 204.463 41.575 C 194.624 43.002, 185.359 44.797, 183.875 45.565 C 180.015 47.561, 177.269 51.448, 176.499 56.009 C 175.298 63.117, 177.131 66.008, 191.550 79.737 L 204.953 92.500 201.928 109 C 197.960 130.640, 198.626 135.362, 206.304 140.044 C 212.384 143.751, 216.771 142.767, 234.855 133.639 L 251.211 125.383 267.355 133.660 C 285.206 142.812, 289.550 143.791, 295.696 140.044 C 303.358 135.372, 304.027 130.681, 300.126 109 L 297.157 92.500 310.557 79.687 C 320.833 69.862, 324.226 65.979, 325.108 63.034 C 327.195 56.067, 324.267 48.741, 318.125 45.565 C 316.641 44.797, 307.376 43.002, 297.537 41.575 C 287.698 40.149, 279.533 38.866, 279.392 38.725 C 279.251 38.585, 275.465 30.951, 270.979 21.761 C 264.227 7.932, 262.228 4.686, 259.382 2.927 C 254.286 -0.222, 249.299 -0.512, 244.257 2.048 M 249.005 52.987 C 248.325 54.630, 246.514 57.951, 244.982 60.367 C 241.936 65.170, 237.575 67.343, 228.617 68.521 L 223.733 69.163 228.801 73.996 C 235.276 80.172, 236.675 84.381, 235.143 93.076 C 234.534 96.537, 234.181 99.515, 234.360 99.693 C 234.538 99.872, 237.429 98.602, 240.783 96.873 C 248.627 92.827, 252.892 92.825, 261.518 96.862 C 268.096 99.940, 268.206 99.956, 267.680 97.748 C 264.877 85.998, 265.978 81.290, 273.189 74.192 L 278.294 69.167 273.397 68.523 C 264.424 67.342, 260.065 65.172, 257.018 60.367 C 255.486 57.951, 253.675 54.630, 252.995 52.987 C 251.436 49.225, 250.564 49.225, 249.005 52.987 M 169.412 123.025 C 165.162 125.129, 161.429 130.954, 151.486 151 C 149.440 155.125, 147.672 158.608, 147.559 158.741 C 147.445 158.873, 139.302 160.149, 129.463 161.575 C 119.624 163.002, 110.359 164.797, 108.875 165.565 C 105.015 167.561, 102.269 171.448, 101.499 176.009 C 100.298 183.117, 102.131 186.008, 116.550 199.737 L 129.953 212.500 126.928 229 C 122.960 250.640, 123.626 255.362, 131.304 260.044 C 137.384 263.751, 141.771 262.767, 159.855 253.639 L 176.211 245.383 192.355 253.660 C 210.206 262.812, 214.550 263.791, 220.696 260.044 C 228.358 255.372, 229.027 250.681, 225.126 229 L 222.157 212.500 235.581 199.665 C 242.964 192.605, 249.277 185.743, 249.611 184.415 C 250.386 181.325, 251.614 181.326, 252.389 184.416 C 252.723 185.744, 259.061 192.607, 266.474 199.666 L 279.953 212.500 276.928 229 C 272.960 250.640, 273.626 255.362, 281.304 260.044 C 287.384 263.751, 291.771 262.767, 309.855 253.639 L 326.211 245.383 342.355 253.660 C 360.206 262.812, 364.550 263.791, 370.696 260.044 C 378.358 255.372, 379.027 250.681, 375.126 229 L 372.157 212.500 385.557 199.687 C 395.833 189.862, 399.226 185.979, 400.108 183.034 C 402.195 176.067, 399.267 168.741, 393.125 165.565 C 391.641 164.797, 382.376 163.002, 372.537 161.575 C 362.698 160.149, 354.560 158.873, 354.453 158.741 C 354.345 158.608, 350.574 151.191, 346.072 142.259 C 338.634 127.503, 337.494 125.788, 333.605 123.509 C 328.431 120.477, 324.968 120.353, 319.493 123.004 C 315.098 125.131, 311.702 130.365, 301.977 150 C 299.662 154.675, 297.674 158.608, 297.560 158.741 C 297.445 158.873, 289.302 160.149, 279.463 161.575 C 257.756 164.723, 254.164 166.305, 252.068 173.643 L 251.252 176.500 250.056 173.502 C 247.043 165.944, 244.214 164.718, 222.537 161.575 C 212.698 160.149, 204.560 158.873, 204.453 158.741 C 204.345 158.608, 200.574 151.191, 196.072 142.259 C 188.634 127.503, 187.494 125.788, 183.605 123.509 C 178.423 120.472, 174.818 120.349, 169.412 123.025 M 174.005 172.987 C 173.325 174.630, 171.514 177.951, 169.982 180.367 C 166.936 185.170, 162.575 187.343, 153.617 188.521 L 148.733 189.163 153.801 193.996 C 160.276 200.172, 161.675 204.381, 160.143 213.076 C 159.534 216.537, 159.181 219.515, 159.360 219.693 C 159.538 219.872, 162.429 218.602, 165.783 216.873 C 173.627 212.827, 177.892 212.825, 186.518 216.862 C 193.096 219.940, 193.206 219.956, 192.680 217.748 C 189.877 205.998, 190.978 201.290, 198.189 194.192 L 203.294 189.167 198.397 188.523 C 189.424 187.342, 185.065 185.172, 182.018 180.367 C 180.486 177.951, 178.675 174.630, 177.995 172.987 C 176.436 169.225, 175.564 169.225, 174.005 172.987 M 324.005 172.987 C 323.325 174.630, 321.514 177.951, 319.982 180.367 C 316.936 185.170, 312.575 187.343, 303.617 188.521 L 298.733 189.163 303.801 193.996 C 310.276 200.172, 311.675 204.381, 310.143 213.076 C 309.534 216.537, 309.181 219.515, 309.360 219.693 C 309.538 219.872, 312.429 218.602, 315.783 216.873 C 323.627 212.827, 327.892 212.825, 336.518 216.862 C 343.096 219.940, 343.206 219.956, 342.680 217.748 C 339.877 205.998, 340.978 201.290, 348.189 194.192 L 353.294 189.167 348.397 188.523 C 339.424 187.342, 335.065 185.172, 332.018 180.367 C 330.486 177.951, 328.675 174.630, 327.995 172.987 C 326.436 169.225, 325.564 169.225, 324.005 172.987 M 448.500 243.145 C 430.578 245.430, 410.537 252.942, 394.781 263.281 C 384.252 270.191, 368.856 285.024, 361.629 295.221 L 356.866 301.942 261.683 302.239 C 154.417 302.573, 162.813 301.969, 145 310.633 L 135.500 315.253 85.216 365.377 C 31.582 418.840, 31.992 418.355, 33.389 426.654 C 33.969 430.096, 38.049 434.471, 72.268 468.339 C 93.296 489.151, 112.501 507.489, 114.946 509.089 C 120.008 512.404, 124.531 512.811, 129.237 510.378 C 130.962 509.485, 145.414 495.985, 161.351 480.378 L 190.329 452 253.914 451.983 C 288.887 451.973, 321.550 451.536, 326.500 451.011 C 344.180 449.137, 361.332 442.899, 376.123 432.964 C 384.527 427.318, 397.405 414.235, 403.154 405.500 C 411.211 393.260, 480 260.861, 480 257.594 C 480 255.965, 479.073 252.716, 477.940 250.376 C 474.167 242.582, 466.907 240.799, 448.500 243.145 M 429.168 279.034 C 415.847 284.445, 405.423 291.442, 395.435 301.679 C 386.927 310.399, 382.240 317.798, 367.992 345 C 361.223 357.925, 354.693 370.075, 353.482 372 C 347.932 380.824, 335.364 388.891, 323.851 391.020 C 320.336 391.670, 298.118 391.949, 263.711 391.775 C 210.379 391.506, 209.083 391.453, 206.384 389.438 C 201.427 385.736, 199.615 382.407, 199.615 377 C 199.615 371.593, 201.427 368.264, 206.384 364.562 C 209.075 362.551, 210.543 362.488, 265.345 362 C 320.979 361.505, 321.575 361.478, 324.523 359.337 C 326.348 358.011, 330.075 352.402, 334.155 344.837 L 340.811 332.500 258.155 332.238 C 203.566 332.065, 173.780 332.330, 170.435 333.020 C 167.649 333.595, 162.474 335.434, 158.935 337.107 C 153.186 339.826, 148.101 344.537, 111.223 381.314 C 88.520 403.954, 70.070 422.933, 70.223 423.489 C 70.375 424.045, 82.299 436.154, 96.721 450.397 L 122.941 476.294 149.155 450.519 C 163.765 436.154, 176.823 424.136, 178.653 423.372 C 181.329 422.253, 194.952 422, 252.380 422 C 329.817 422, 331.139 421.914, 345.453 415.955 C 358.037 410.717, 371.491 399.552, 378.516 388.519 C 380.274 385.758, 393.638 360.775, 408.214 333 C 440.749 271.002, 438.203 275.995, 437.276 276.028 C 436.849 276.043, 433.201 277.396, 429.168 279.034" stroke="none" fill="#0097b2" fill-rule="evenodd"/>
</svg>