<svg xmlns="http://www.w3.org/2000/svg" width="512" height="512" viewBox="0 0 512 512" version="1.1">
	<path d="M 262.481 1.394 C 258.223 3.249, 253.221 9.305, 252.420 13.575 C 251.619 17.844, 253.167 23.671, 256.088 27.385 C 259.818 32.126, 263.330 33.171, 278.554 34.069 C 308.529 35.837, 330.177 41.131, 356 53.006 C 379.405 63.770, 397.753 76.624, 416.564 95.436 C 435.376 114.247, 448.230 132.595, 458.994 156 C 470.830 181.739, 476.325 204.069, 477.935 232.975 C 478.504 243.194, 479.240 248.564, 480.374 250.756 C 483.922 257.617, 493.060 261.455, 500.220 259.093 C 504.209 257.776, 509.418 252.719, 510.939 248.685 C 513.192 242.708, 511.094 213.988, 506.939 193.937 C 495.617 139.304, 465.322 89.622, 421.676 54.115 C 400.949 37.254, 371.304 21.011, 345.834 12.561 C 317.515 3.166, 272.312 -2.890, 262.481 1.394 M 90.500 46.409 C 80.420 48.907, 77.273 51.444, 47.154 81.356 C 16.214 112.082, 11.584 117.376, 6.945 127.328 C 2.073 137.779, 0.529 145.254, 0.610 158 C 0.696 171.385, 1.799 176.156, 9.492 196.388 C 62.683 336.295, 175.705 449.317, 315.612 502.508 C 339.704 511.668, 351.531 513.575, 366.500 510.712 C 387.311 506.733, 393.229 502.547, 429.198 466.367 C 460.145 435.238, 461.750 433.128, 464.085 420.499 C 465.487 412.912, 463.860 403.393, 459.884 395.935 C 455.704 388.091, 374.810 307.517, 367.690 304.105 C 360.446 300.633, 351.448 299.378, 343.888 300.784 C 333.195 302.772, 327.951 306.116, 313.462 320.182 L 300.149 333.108 291.325 327.416 C 251.306 301.605, 214.212 264.973, 187.333 224.718 L 178.798 211.936 192.860 197.504 C 200.595 189.566, 207.909 181.143, 209.114 178.786 C 215.688 165.927, 215.450 151.443, 208.463 139.236 C 206.788 136.310, 190.035 118.812, 164.626 93.451 C 120.657 49.565, 119.090 48.272, 107.114 46.015 C 100.399 44.750, 96.857 44.834, 90.500 46.409 M 263.500 66.535 C 255.266 69.338, 250.247 79.159, 252.917 87.247 C 254.225 91.213, 259.292 96.422, 263.315 97.939 C 264.863 98.522, 268.463 99.001, 271.315 99.003 C 274.167 99.004, 280.550 99.489, 285.500 100.080 C 345.464 107.237, 394.990 151.171, 408.847 209.500 C 411.237 219.560, 413 232.787, 413 240.659 C 413 247.191, 414.279 250.625, 418.239 254.731 C 424.663 261.391, 434.204 261.582, 440.923 255.185 C 446.281 250.082, 447.114 246.194, 445.996 231.500 C 444.452 211.219, 441.615 197.986, 435.087 180.615 C 415.008 127.189, 370.189 86.514, 315 71.634 C 296.444 66.631, 270.705 64.083, 263.500 66.535 M 68.149 107.739 C 34.430 141.947, 34.484 141.866, 34.529 158 C 34.558 168.353, 34.638 168.703, 40.208 183 C 67.041 251.875, 102.788 306.893, 153.947 358.053 C 205.048 409.153, 260.777 445.381, 328.943 471.812 C 343.295 477.377, 343.648 477.457, 354 477.478 C 370.682 477.513, 371.015 477.293, 403.702 444.714 C 427.284 421.210, 431.007 417.093, 431.004 414.514 C 431 411.920, 425.922 406.450, 392.236 372.764 C 358.987 339.515, 353.058 334, 350.563 334 C 348.135 334, 344.655 336.961, 329.508 351.912 C 312.487 368.713, 311.077 369.866, 306.773 370.511 C 299.874 371.546, 297.303 370.596, 282.740 361.630 C 254.084 343.987, 233.536 327.675, 208.965 303.064 C 183.924 277.982, 166.204 255.545, 149.169 227.349 C 136.682 206.680, 136.870 205.981, 161.641 180.945 C 177.144 165.276, 180 161.928, 180 159.427 C 180 156.862, 174.813 151.285, 141.220 117.733 C 107.670 84.224, 102.040 78.999, 99.470 78.989 C 96.897 78.979, 92.708 82.824, 68.149 107.739 M 265.500 131.950 C 258.504 133.588, 253.533 138.813, 252.435 145.681 C 251.530 151.340, 253.368 156.196, 257.996 160.378 C 262.039 164.030, 263.760 164.528, 275.500 165.436 C 312.674 168.313, 343.687 199.326, 346.564 236.500 C 347.472 248.240, 347.970 249.961, 351.622 254.004 C 358.275 261.368, 367.921 261.857, 374.916 255.185 C 380.290 250.058, 381.145 246.199, 379.888 232.737 C 375.734 188.246, 344.799 149.965, 302.205 136.606 C 290.298 132.871, 271.662 130.508, 265.500 131.950" stroke="none" fill="#0097b2" fill-rule="evenodd"/>
</svg>