<svg xmlns="http://www.w3.org/2000/svg" width="512" height="512" viewBox="0 0 512 512" version="1.1">
	<path d="M 243 0.590 C 224.100 2.830, 211.355 5.678, 198.635 10.504 C 142.261 31.893, 102.377 80.913, 92.868 140.500 C 92.166 144.900, 91.598 156.600, 91.606 166.500 C 91.618 182.146, 91.968 186.148, 94.286 197.102 C 98.628 217.627, 105.642 235.485, 115.651 251.500 C 118.401 255.900, 136.081 282.827, 154.939 311.337 C 173.797 339.847, 188.838 363.525, 188.363 363.955 C 187.888 364.384, 180.778 365.275, 172.563 365.935 C 143.081 368.302, 104.865 374.431, 79.500 380.862 C 46.434 389.244, 20.428 401.658, 9.383 414.333 C 0.126 424.955, -2.221 438.652, 3.222 450.296 C 14.739 474.936, 62.958 494.103, 139.500 504.466 C 256.965 520.371, 402.438 509.915, 470 480.711 C 483.205 475.003, 493.488 468.599, 500.267 461.860 C 505.698 456.461, 510.968 447.588, 510.990 443.809 C 510.996 442.879, 511.450 441.840, 512 441.500 C 512.550 441.160, 513 438.632, 513 435.882 C 513 432.803, 512.616 431.119, 512 431.500 C 511.450 431.840, 510.996 431.304, 510.990 430.309 C 510.974 427.337, 506.492 418.790, 502.613 414.333 C 491.589 401.666, 465.569 389.245, 432.500 380.862 C 407.135 374.431, 368.919 368.302, 339.437 365.935 C 331.222 365.275, 324.111 364.384, 323.636 363.954 C 323.161 363.524, 338.643 339.171, 358.042 309.836 C 377.440 280.501, 395.114 253.575, 397.318 250 C 406.361 235.330, 413.598 216.560, 417.714 197.102 C 420.032 186.148, 420.382 182.146, 420.394 166.500 C 420.402 156.600, 419.834 144.900, 419.132 140.500 C 407.827 69.664, 353.001 14.037, 283 2.382 C 274.389 0.948, 249.417 -0.170, 243 0.590 M 237 31.532 C 191.587 37.873, 150.610 69.075, 132.581 111.044 C 116.874 147.605, 117.381 186.649, 134.029 222.684 C 136.113 227.195, 145.903 243.174, 155.784 258.193 C 211.609 343.044, 255.252 408.500, 256.002 408.500 C 256.755 408.500, 294.409 352.027, 355.007 260.015 C 365.541 244.020, 375.870 227.231, 377.961 222.707 C 394.620 186.647, 395.130 147.615, 379.419 111.044 C 366.704 81.445, 340.418 54.895, 311.090 42.027 C 287.065 31.486, 262.378 27.989, 237 31.532 M 246.500 90.557 C 245.400 90.811, 242.045 91.518, 239.045 92.128 C 217.302 96.543, 196.137 114.532, 186.838 136.500 C 182.736 146.190, 181.521 152.702, 181.521 165 C 181.521 177.298, 182.736 183.810, 186.838 193.500 C 196.102 215.385, 215.817 232.238, 239 238.090 C 246.140 239.893, 265.860 239.893, 273 238.090 C 296.183 232.238, 315.898 215.385, 325.162 193.500 C 329.264 183.810, 330.479 177.298, 330.479 165 C 330.479 158.496, 329.876 151.111, 329.090 148 C 322.307 121.130, 301.352 99.757, 274.500 92.323 C 269.436 90.921, 250.174 89.706, 246.500 90.557 M 247.108 121.082 C 224.394 125.542, 208.041 148.926, 211.794 171.578 C 215.045 191.195, 229.805 205.955, 249.422 209.206 C 278.338 213.997, 304.997 187.338, 300.206 158.422 C 295.983 132.942, 272.131 116.168, 247.108 121.082 M 187.500 394.608 C 117.838 400.175, 63.990 412.483, 38.820 428.593 C 28.432 435.243, 28.085 437.685, 36.638 443.957 C 60.505 461.460, 115.481 473.797, 198 480.167 C 223.021 482.098, 294.362 481.796, 320.500 479.649 C 399.553 473.153, 452.049 461.054, 475.362 443.957 C 483.915 437.685, 483.568 435.243, 473.180 428.593 C 448.486 412.788, 392.816 399.886, 328.500 395.063 C 320.800 394.486, 311.926 393.765, 308.779 393.460 L 303.059 392.907 284.995 420.289 C 265.777 449.420, 263.418 452, 256 452 C 248.584 452, 246.221 449.417, 227.036 420.335 C 211.942 397.456, 208.635 393.020, 206.751 393.125 C 205.513 393.194, 196.850 393.861, 187.500 394.608 M 0.300 437 C 0.300 440.025, 0.487 441.262, 0.716 439.750 C 0.945 438.238, 0.945 435.762, 0.716 434.250 C 0.487 432.738, 0.300 433.975, 0.300 437" stroke="none" fill="#0097b2" fill-rule="evenodd"/>
</svg>